<?xml version="1.0" encoding="UTF-8"?>
<svg xmlns="http://www.w3.org/2000/svg" viewBox="0 0 451.47 434.95">
  <defs>
    <style>
      .cls-1 {
        fill: #25569f;
      }

      .cls-2 {
        fill: #acc1e1;
      }

      .cls-3 {
        fill: #e5edf9;
        mix-blend-mode: multiply;
      }

      .cls-4 {
        stroke: #c8cfd8;
        stroke-width: 6px;
      }

      .cls-4, .cls-5, .cls-6, .cls-7, .cls-8, .cls-9, .cls-10 {
        stroke-miterlimit: 10;
      }

      .cls-4, .cls-5, .cls-6, .cls-7, .cls-9, .cls-10, .cls-11 {
        fill: none;
      }

      .cls-12 {
        fill: #c8cfd8;
      }

      .cls-13 {
        fill: #274191;
      }

      .cls-5 {
        stroke: #c3d6ef;
      }

      .cls-5, .cls-6 {
        stroke-width: 3.15px;
      }

      .cls-5, .cls-7, .cls-10, .cls-11 {
        stroke-linecap: round;
      }

      .cls-14 {
        fill: #4cc0b9;
      }

      .cls-6 {
        stroke: #fff;
      }

      .cls-15 {
        fill: #5e7886;
      }

      .cls-7 {
        stroke-width: 1.33px;
      }

      .cls-7, .cls-9 {
        stroke: #d1dae3;
      }

      .cls-16 {
        isolation: isolate;
      }

      .cls-17 {
        fill: #d8d8d8;
      }

      .cls-8 {
        fill: #81bdc1;
        stroke: #4288c5;
        stroke-width: 7px;
      }

      .cls-18 {
        fill: #fff;
      }

      .cls-19 {
        fill: #b6c1ce;
      }

      .cls-20 {
        fill: #2870b9;
      }

      .cls-21 {
        fill: #d1e0f4;
      }

      .cls-22 {
        fill: #96d1f0;
      }

      .cls-23 {
        fill: #97b3d9;
      }

      .cls-24 {
        fill: #d1dae3;
      }

      .cls-25 {
        fill: #fdf5ab;
      }

      .cls-26 {
        fill: #399db0;
      }

      .cls-27 {
        fill: #68cac9;
      }

      .cls-28 {
        fill: #f1c292;
      }

      .cls-9 {
        stroke-width: 1.8px;
      }

      .cls-10 {
        stroke: #dc931d;
        stroke-width: 1.22px;
      }

      .cls-11 {
        stroke: #274191;
        stroke-linejoin: round;
        stroke-width: 6.48px;
      }

      .cls-29 {
        fill: #f5d53b;
      }
    </style>
  </defs>
  <g class="cls-16">
    <g id="Layer_2" data-name="Layer 2">
      <g id="OBJECTS">
        <g>
          <circle class="cls-22" cx="222.04" cy="216.03" r="216.03"/>
          <path class="cls-3" d="M415.08,382.16h-246.24c-4.5,0-8.14-3.64-8.14-8.14h0c0-4.5,3.64-8.14,8.14-8.14h246.24c4.5,0,8.14,3.64,8.14,8.14h0c0,4.5-3.64,8.14-8.14,8.14Z"/>
          <rect class="cls-3" x="27.75" y="418.67" width="175" height="16.28" rx="8.14" ry="8.14"/>
          <rect class="cls-18" x="145.62" y="41.16" width="85.45" height="103.68"/>
          <rect class="cls-8" x="145.62" y="41.16" width="85.45" height="103.68" rx="6.82" ry="6.82"/>
          <g>
            <g>
              <path class="cls-12" d="M332.07,240.2c-3.98,0-7.2-3.23-7.2-7.2V93.03c0-17.2,13.99-31.19,31.19-31.19h28.91c3.98,0,7.2,3.23,7.2,7.2s-3.23,7.2-7.2,7.2h-28.91c-9.26,0-16.79,7.53-16.79,16.79v139.96c0,3.98-3.23,7.2-7.2,7.2Z"/>
              <circle class="cls-12" cx="385.71" cy="68.99" r="8.84" transform="translate(64.19 292.94) rotate(-45)"/>
              <rect class="cls-24" x="399.93" y="191.5" width="6.42" height="11.49"/>
              <g>
                <rect class="cls-19" x="280.43" y="235.57" width="24.6" height="28.65"/>
                <path class="cls-12" d="M326.15,232.58h24.12c3.96,0,7.18,3.22,7.18,7.18v134.26h-31.3v-141.44h0Z"/>
                <path class="cls-18" d="M321.63,232.58h8.46c3.96,0,7.18,3.22,7.18,7.18v134.26h-63.27v-93.8c0-26.29,21.35-47.64,47.64-47.64Z"/>
                <path class="cls-24" d="M285.99,204.35v18.45h-28.81c-3.53,0-6.38,2.86-6.38,6.38h0c0,3.53,2.86,6.38,6.38,6.38h40.16c3.92,0,7.1-3.18,7.1-7.1v-24.12h-18.45Z"/>
                <path class="cls-18" d="M262,222.81h4.08c10.19,0,18.45-8.26,18.45-18.45h-40.98c0,10.19,8.26,18.45,18.45,18.45Z"/>
                <line class="cls-5" x1="243.55" y1="204.35" x2="284.53" y2="204.35"/>
                <path class="cls-6" d="M289.78,204.35v-5.09c0-4.29-3.48-7.76-7.76-7.76h-.75c-4.29,0-7.76,3.48-7.76,7.76h0"/>
                <path class="cls-6" d="M299.53,204.35v-19.03c0-3.68-2.99-6.67-6.67-6.67h0c-1.89,0-3.69.8-4.95,2.2l-5.03,5.57"/>
              </g>
              <path class="cls-18" d="M344.45,179.11h7.82c1.4,0,2.53,1.13,2.53,2.53v45.71c0,1.23-1,2.23-2.23,2.23h-8.42c-1.23,0-2.23-1-2.23-2.23v-45.71c0-1.4,1.13-2.53,2.53-2.53Z" transform="translate(552.71 -144.01) rotate(90)"/>
              <path class="cls-18" d="M407.26,191.53v-12.88h-45.62c-3.56,0-6.44,2.88-6.44,6.44h0c0,3.56,2.88,6.44,6.44,6.44h45.62Z"/>
              <g>
                <path class="cls-9" d="M405.84,228.04v46.64c0,5.52,4.48,10,10,10h0c5.52,0,10-4.48,10-10v-17.77c0-12.27-3.72-24.26-10.66-34.37h0"/>
                <path class="cls-9" d="M393.14,228.04v46.64c0,5.52,4.48,10,10,10h0c5.52,0,10-4.48,10-10v-17.77c0-12.27-3.72-24.26-10.66-34.37h0"/>
                <path class="cls-9" d="M380.56,228.04v46.64c0,5.52,4.48,10,10,10h0c5.52,0,10-4.48,10-10v-17.77c0-12.27-3.72-24.26-10.66-34.37h0"/>
                <g>
                  <path class="cls-18" d="M367.48,218.79h83.98v-16h-52.43l-9.71,1.94c-8.8,1.76-16.6,6.78-21.84,14.07h0Z"/>
                  <path class="cls-24" d="M419.92,218.79h31.55v-16l-9.71,1.94c-8.8,1.76-16.6,6.78-21.84,14.07h0Z"/>
                  <path class="cls-24" d="M367.48,218.53h63.74v8h-52c-4.65,0-8.91-2.58-11.06-6.71l-.68-1.3Z"/>
                  <path class="cls-24" d="M419.92,218.53h31.55v8h-19.81c-4.65,0-8.91-2.58-11.06-6.71l-.68-1.3Z"/>
                </g>
                <g>
                  <rect class="cls-17" x="379.3" y="228.01" width="2.62" height="4.99"/>
                  <path class="cls-15" d="M382.63,228.01h-4.05v-17.68c0-1.06.25-2.11.72-3.06l1.32-2.64,3.62,1.81-.89,1.78c-.47.95-.72,2-.72,3.06v16.73Z"/>
                  <rect class="cls-15" x="376.81" y="203" width="7.43" height="3.44"/>
                  <rect class="cls-15" x="375.1" y="204.34" width="1.71" height=".75" transform="translate(751.92 409.43) rotate(180)"/>
                </g>
                <path class="cls-24" d="M383.12,218.53h2.52v7.11h-2.52c-1.43,0-2.6-1.16-2.6-2.6v-1.92c0-1.43,1.16-2.6,2.6-2.6Z"/>
                <g>
                  <rect class="cls-17" x="391.92" y="228.01" width="2.62" height="4.99"/>
                  <path class="cls-15" d="M395.25,228.01h-4.05v-17.68c0-1.06.25-2.11.72-3.06l1.32-2.64,3.62,1.81-.89,1.78c-.47.95-.72,2-.72,3.06v16.73Z"/>
                  <rect class="cls-15" x="389.43" y="203" width="7.43" height="3.44"/>
                  <rect class="cls-15" x="387.72" y="204.34" width="1.71" height=".75" transform="translate(777.15 409.43) rotate(180)"/>
                </g>
                <path class="cls-24" d="M395.74,218.53h2.52v7.11h-2.52c-1.43,0-2.6-1.16-2.6-2.6v-1.92c0-1.43,1.16-2.6,2.6-2.6Z"/>
                <g>
                  <rect class="cls-17" x="404.53" y="228.01" width="2.62" height="4.99"/>
                  <path class="cls-15" d="M407.86,228.01h-4.05v-17.68c0-1.06.25-2.11.72-3.06l1.32-2.64,3.62,1.81-.89,1.78c-.47.95-.72,2-.72,3.06v16.73Z"/>
                  <rect class="cls-15" x="402.04" y="203" width="7.43" height="3.44"/>
                  <rect class="cls-15" x="400.33" y="204.34" width="1.71" height=".75" transform="translate(802.38 409.43) rotate(180)"/>
                </g>
                <path class="cls-24" d="M408.35,218.53h2.52v7.11h-2.52c-1.43,0-2.6-1.16-2.6-2.6v-1.92c0-1.43,1.16-2.6,2.6-2.6Z"/>
              </g>
              <circle class="cls-24" cx="407.15" cy="185.09" r="6.44"/>
              <rect class="cls-24" x="363" y="191.5" width="6.42" height="6.42"/>
              <path class="cls-18" d="M279.96,126.28c-2.83.2-5.63-1.28-6.97-3.98-1.77-3.56-.32-7.89,3.24-9.66l105.86-50.05c3.56-1.77,7.89-.32,9.66,3.24,1.77,3.56.32,7.89-3.24,9.66l-105.86,50.05c-.87.43-1.78.67-2.68.74Z"/>
              <g>
                <path class="cls-12" d="M258.43,156.14c-.43.16-.89.22-1.37.18-1.74-.16-3.02-1.7-2.86-3.44l.75-8.32c1.05-11.6,8.8-21.68,19.73-25.68,1.64-.6,3.46.24,4.06,1.88.6,1.64-.24,3.46-1.88,4.06-8.65,3.16-14.77,11.13-15.61,20.31l-.75,8.32c-.11,1.26-.95,2.28-2.07,2.69Z"/>
                <path class="cls-23" d="M276.33,158.83h-28.73c-2.57,0-5-1.2-6.56-3.24l-11.51-15.08c-1.58-2.07-.1-5.06,2.51-5.06h28.73c2.57,0,5,1.2,6.56,3.24l11.51,15.08c1.58,2.07.1,5.06-2.51,5.06Z"/>
                <g>
                  <path class="cls-25" d="M242.39,156.81c-1.93,0-3.78-.92-4.95-2.45l-11.51-15.08c-.39-.51-.21-1-.12-1.19.09-.19.38-.63,1.02-.63h28.73c1.93,0,3.78.92,4.95,2.45l11.51,15.08c.38.51.21,1,.11,1.19-.09.19-.38.63-1.02.63h-28.73Z"/>
                  <path class="cls-18" d="M255.56,139.48c1.3,0,2.56.62,3.35,1.66l10.42,13.66h-26.94c-1.3,0-2.56-.62-3.35-1.66l-10.42-13.66h26.94M255.56,135.44h-28.73c-2.61,0-4.09,2.99-2.51,5.06l11.51,15.08c1.56,2.04,3.99,3.24,6.56,3.24h28.73c2.61,0,4.09-2.99,2.51-5.06l-11.51-15.08c-1.56-2.04-3.99-3.24-6.56-3.24h0Z"/>
                </g>
              </g>
            </g>
            <g>
              <g>
                <polygon class="cls-18" points="298.17 269.28 280.83 269.28 257.85 302.76 275.18 302.76 298.17 269.28"/>
                <polygon class="cls-2" points="298.64 269.28 293.59 269.28 270.61 302.76 275.66 302.76 298.64 269.28"/>
                <path class="cls-14" d="M329.55,259.16h-26.98c-3.41,0-6.58,1.71-8.45,4.56l-3.65,5.55h49.2c0-5.59-4.53-10.12-10.12-10.12Z"/>
                <path class="cls-26" d="M319.56,259.16h-26.98c-3.41,0-6.58,1.71-8.45,4.56l-3.65,5.55h49.2c0-5.59-4.53-10.12-10.12-10.12Z"/>
              </g>
              <path class="cls-21" d="M178.62,215.31h5.36v76.39h-9.2v-72.55c0-2.12,1.72-3.84,3.84-3.84Z" transform="translate(-108.18 136.24) rotate(-32.53)"/>
              <rect class="cls-2" x="193.61" y="195.51" width="14.06" height="41.05" transform="translate(-84.69 141.79) rotate(-32.53)"/>
              <rect class="cls-21" x="190.72" y="200.45" width="4.32" height="41.05" transform="translate(474.34 303.56) rotate(147.47)"/>
              <path class="cls-19" d="M362.94,354.87h-121.53v19.16h140.69c0-10.58-8.58-19.16-19.16-19.16Z"/>
              <polygon class="cls-19" points="320.29 302.44 278.34 302.44 261.58 361.68 303.53 361.68 320.29 302.44"/>
              <polygon class="cls-24" points="261.58 361.68 222.59 361.68 207.63 302.44 278.34 302.44 261.58 361.68"/>
              <path class="cls-18" d="M421.66,338.84l-39.94-40.94c-7.44-7.62-17.64-11.92-28.29-11.92h-153.15v23.21c0,11.77,9.54,21.3,21.3,21.3h13.17c6.29,0,12.25-2.78,16.3-7.59l12.91-15.35h32.2c5.15,0,10.07,2.07,13.67,5.75l31.1,31.76c1.92,1.96,4.54,3.06,7.28,3.06h69.52c4.84,0,7.29-5.82,3.91-9.28Z"/>
              <g>
                <path class="cls-14" d="M217.01,215.53h-34.53l-12.52-18.91c-2.05-3.09.17-7.22,3.88-7.22h33.14c1.85,0,3.51,1.13,4.19,2.85l1.3,3.27c1.83,4.6,4.49,8.82,7.85,12.44h0c2.68,2.89.63,7.58-3.31,7.58Z"/>
                <path class="cls-26" d="M183.72,215.53h-2.78c-2.68,0-5.18-1.34-6.65-3.57l-7.02-10.6c-3.39-5.12.28-11.96,6.43-11.96h0c1.85,0,3.51,1.13,4.19,2.85l1.3,3.27c1.83,4.6,4.49,8.82,7.85,12.44h0c2.68,2.89.63,7.58-3.31,7.58Z"/>
              </g>
              <path class="cls-27" d="M262.17,285.98h-62.68l-38.79-60.37c-1.99-3.1.23-7.17,3.92-7.17h62.68c4.62,0,8.92,2.35,11.42,6.24l30.78,47.9c3.72,5.79-.44,13.41-7.32,13.41Z"/>
              <path class="cls-14" d="M262.17,285.98h-62.68l-38.79-60.37c-1.99-3.1.23-7.17,3.92-7.17h62.68c4.62,0,8.92,2.35,11.42,6.24l30.78,47.9c3.72,5.79-.44,13.41-7.32,13.41Z"/>
              <path class="cls-26" d="M199.49,285.98h0l-38.79-60.37c-1.99-3.1.23-7.17,3.92-7.17h0c4.62,0,8.92,2.35,11.42,6.24l30.78,47.9c3.72,5.79-.44,13.41-7.32,13.41Z"/>
              <path class="cls-26" d="M355.44,342.13c-1.67,0-3.34-.64-4.62-1.91l-31.2-31.2c-6.44-6.44-14.99-9.98-24.09-9.98h-95.06c-3.52,0-6.54-2.7-6.71-6.21-.18-3.75,2.81-6.84,6.52-6.84h95.24c12.59,0,24.42,4.9,33.32,13.8l31.07,31.07c2.56,2.56,2.71,6.77.16,9.35-1.28,1.29-2.96,1.93-4.64,1.93Z"/>
              <path class="cls-14" d="M413.34,342.13c1.67,0,3.34-.64,4.62-1.91,2.55-2.55,2.55-6.68,0-9.23l-31.2-31.2c-8.9-8.9-20.74-13.8-33.32-13.8h-136.55,78.64c12.59,0,24.42,4.9,33.32,13.8l31.2,31.2c2.55,2.55,2.55,6.68,0,9.23-1.27,1.27-2.95,1.91-4.62,1.91h57.9Z"/>
              <path class="cls-18" d="M315.28,354.87h-102.38c-10.58,0-19.16,8.58-19.16,19.16h140.69c0-10.58-8.58-19.16-19.16-19.16Z"/>
              <g>
                <polygon class="cls-18" points="244.52 269.28 227.19 269.28 204.2 302.76 221.54 302.76 244.52 269.28"/>
                <polygon class="cls-2" points="245 269.28 239.95 269.28 216.97 302.76 222.02 302.76 245 269.28"/>
                <path class="cls-14" d="M275.9,259.16h-26.98c-3.41,0-6.58,1.71-8.45,4.56l-3.65,5.55h49.2c0-5.59-4.53-10.12-10.12-10.12Z"/>
                <path class="cls-26" d="M265.92,259.16h-26.98c-3.41,0-6.58,1.71-8.45,4.56l-3.65,5.55h49.2c0-5.59-4.53-10.12-10.12-10.12Z"/>
              </g>
            </g>
          </g>
          <g>
            <rect class="cls-13" x="98.71" y="260.5" width="38.41" height="151.86"/>
            <path class="cls-1" d="M165.1,261.48h-66.39c0,10.86,8.81,19.67,19.67,19.67h46.72v-19.67Z"/>
            <polygon class="cls-1" points="191.61 429.02 153.2 429.02 127.38 260.5 165.78 260.5 191.61 429.02"/>
            <g>
              <rect class="cls-28" x="46.73" y="203.35" width="24.6" height="54.36" transform="translate(292.94 274.26) rotate(114.95)"/>
              <rect class="cls-29" x="82.45" y="190" width="24.6" height="54.36" transform="translate(96.82 -19.76) rotate(24.07)"/>
              <rect class="cls-28" x="82.45" y="190" width="24.6" height="54.36" transform="translate(96.82 -19.76) rotate(24.07)"/>
              <rect class="cls-20" x="84.66" y="191.41" width="33.37" height="22.03" transform="translate(91.37 -23.73) rotate(24.07)"/>
              <path class="cls-28" d="M95.01,247.07c-2.8,6.27-10.15,9.08-16.41,6.28-6.27-2.8-9.08-10.15-6.28-16.41,2.8-6.27,10.15-9.08,16.41-6.28,6.27,2.8,9.08,10.15,6.28,16.41Z"/>
              <path class="cls-20" d="M121.07,199.17c-3.76,8.41-13.62,12.19-22.04,8.43-8.41-3.76-12.19-13.62-8.43-22.04,3.76-8.41,13.62-12.19,22.04-8.43,8.41,3.76,12.19,13.62,8.43,22.04Z"/>
            </g>
            <path class="cls-20" d="M137.12,412.36h-45.79c-7.79,0-14.11,6.32-14.11,14.11h0c0,2.81,2.28,5.09,5.09,5.09h47.85c6.59,0,11.24-6.46,9.14-12.71l-2.18-6.49Z"/>
            <path class="cls-20" d="M119.04,165.87h22.96c15.85,0,28.71,12.87,28.71,28.71v67.8h-80.39v-67.8c0-15.85,12.87-28.71,28.71-28.71Z"/>
            <g>
              <g>
                <path class="cls-28" d="M148.62,220.73h0c-.78,1.81.05,3.91,1.86,4.69l6.65,2.87c1.81.78,3.91-.05,4.69-1.86h0c.78-1.81-.05-3.91-1.86-4.69l-6.65-2.87c-1.81-.78-3.91.05-4.69,1.86Z"/>
                <path class="cls-28" d="M157.31,221.89h0c-1.83.73-2.72,2.8-2,4.63l2.81,7.09c.73,1.83,2.8,2.72,4.63,2h0c1.83-.73,2.72-2.8,2-4.63l-2.81-7.09c-.73-1.83-2.8-2.72-4.63-2Z"/>
              </g>
              <rect class="cls-28" x="141.31" y="228.42" width="24.04" height="24.59"/>
              <g>
                <path class="cls-28" d="M128.5,231.5h0c0,1.71,1.39,3.11,3.1,3.11h12.65s0-6.2,0-6.2h-12.65c-1.71-.01-3.11,1.38-3.11,3.09Z"/>
                <path class="cls-28" d="M125.96,237.7h0c0,1.71,1.39,3.11,3.1,3.11h15.18s0-6.2,0-6.2h-15.18c-1.71-.01-3.11,1.38-3.11,3.09Z"/>
                <path class="cls-28" d="M128.09,243.92h0c0,1.71,1.39,3.11,3.1,3.11h13.04s0-6.2,0-6.2h-13.04c-1.71-.01-3.11,1.38-3.11,3.09Z"/>
                <path class="cls-28" d="M133.22,249.87h0c0,1.71,1.39,3.11,3.1,3.11l7.94.03v-6.21s-7.93-.03-7.93-.03c-1.71,0-3.11,1.39-3.11,3.1Z"/>
              </g>
              <line class="cls-10" x1="131.6" y1="234.6" x2="142.7" y2="234.57"/>
              <line class="cls-10" x1="131.62" y1="240.75" x2="142.72" y2="240.72"/>
              <line class="cls-10" x1="136.33" y1="246.77" x2="142.74" y2="246.75"/>
              <line class="cls-10" x1="144.2" y1="231.04" x2="144.21" y2="231.92"/>
              <line class="cls-10" x1="144.22" y1="237.25" x2="144.23" y2="238.12"/>
              <line class="cls-10" x1="144.24" y1="243.45" x2="144.25" y2="244.33"/>
              <line class="cls-10" x1="144.24" y1="249.45" x2="144.24" y2="250.33"/>
            </g>
            <path class="cls-28" d="M48.77,203.56h0c-1.83.73-2.72,2.8-2,4.63l2.81,7.09c.73,1.83,2.8,2.72,4.63,2h0c1.83-.73,2.72-2.8,2-4.63l-2.81-7.09c-.73-1.83-2.8-2.72-4.63-2Z"/>
            <g>
              <path class="cls-28" d="M166.55,201.68h24.6v48.04c0,3.49-2.83,6.32-6.32,6.32h-18.28v-54.36h0Z" transform="translate(244.02 -54.19) rotate(50.97)"/>
              <rect class="cls-29" x="163.94" y="171.32" width="24.6" height="54.36" transform="translate(-82.99 255.58) rotate(-60.82)"/>
              <rect class="cls-28" x="163.94" y="171.32" width="24.6" height="54.36" transform="translate(-82.99 255.58) rotate(-60.82)"/>
              <rect class="cls-20" x="145.44" y="179.6" width="33.37" height="22.03" transform="translate(-83.35 239.22) rotate(-60.82)"/>
              <path class="cls-28" d="M206.03,200.9c5.99,3.35,8.14,10.92,4.79,16.91-3.35,5.99-10.92,8.14-16.91,4.79-5.99-3.35-8.14-10.92-4.79-16.91,3.35-5.99,10.92-8.14,16.91-4.79Z"/>
              <circle class="cls-20" cx="152.51" cy="185.24" r="16.68" transform="translate(-69.19 93.46) rotate(-28.04)"/>
            </g>
            <path class="cls-18" d="M77.21,426.47c0,2.81,2.28,5.09,5.09,5.09h47.85c3.77,0,6.9-2.11,8.5-5.09h-61.44Z"/>
            <path class="cls-20" d="M161.02,412.36h22.78c7.82,0,14.18,6.35,14.18,14.18v5.02h-51.13v-5.02c0-7.82,6.35-14.18,14.18-14.18Z"/>
            <rect class="cls-18" x="146.84" y="426.54" width="51.13" height="5.02"/>
            <g>
              <path class="cls-4" d="M41.56,202.45v-23.28c0-5.84-1.97-11.51-5.59-16.1l-14.25-18.06"/>
              <path class="cls-24" d="M34.91,282.8h13.3v145.43c0,1.84-1.49,3.33-3.33,3.33h-6.63c-1.84,0-3.33-1.49-3.33-3.33v-145.43h0Z"/>
              <path class="cls-24" d="M33.37,208.89h16.38v72.37c0,.85-.69,1.54-1.54,1.54h-13.3c-.85,0-1.54-.69-1.54-1.54v-72.37h0Z"/>
              <rect class="cls-19" x="33.37" y="208.89" width="16.38" height="50.7"/>
              <path class="cls-24" d="M45.03,196.01h-6.95c-.51,0-.97.34-1.11.83l-3.6,12.06h16.38l-3.6-12.06c-.15-.49-.6-.83-1.11-.83Z"/>
              <g>
                <path class="cls-19" d="M26.41,166.73c12,0,21.72-9.73,21.72-21.72s-9.73-21.72-21.72-21.72h-4.69v43.44h4.69Z"/>
                <g>
                  <path class="cls-18" d="M21.72,164.46c-10.73,0-19.45-8.73-19.45-19.45s8.73-19.45,19.45-19.45,19.45,8.73,19.45,19.45-8.73,19.45-19.45,19.45Z"/>
                  <path class="cls-12" d="M21.72,127.82c9.47,0,17.18,7.71,17.18,17.18s-7.71,17.18-17.18,17.18-17.18-7.71-17.18-17.18,7.71-17.18,17.18-17.18M21.72,123.28c-12,0-21.72,9.73-21.72,21.72s9.73,21.72,21.72,21.72,21.72-9.73,21.72-21.72-9.73-21.72-21.72-21.72h0Z"/>
                </g>
              </g>
              <g>
                <line class="cls-7" x1="36.27" y1="213.45" x2="46.85" y2="213.45"/>
                <line class="cls-7" x1="36.27" y1="220.38" x2="46.85" y2="220.38"/>
                <line class="cls-7" x1="36.27" y1="227.31" x2="46.85" y2="227.31"/>
                <line class="cls-7" x1="36.27" y1="234.24" x2="46.85" y2="234.24"/>
                <line class="cls-7" x1="36.27" y1="241.17" x2="46.85" y2="241.17"/>
                <line class="cls-7" x1="36.27" y1="248.1" x2="46.85" y2="248.1"/>
                <line class="cls-7" x1="36.27" y1="255.03" x2="46.85" y2="255.03"/>
              </g>
            </g>
            <g>
              <path class="cls-28" d="M34.31,210.34h-3.31c-1.72,0-3.11,1.39-3.11,3.11h0c0,1.72,1.39,3.11,3.11,3.11h3.31c1.72,0,3.11-1.39,3.11-3.11h0c0-1.72-1.39-3.11-3.11-3.11Z"/>
              <path class="cls-28" d="M40.09,202.4h0c-.78,1.81.05,3.91,1.86,4.69l6.65,2.87c1.81.78,3.91-.05,4.69-1.86h0c.78-1.81-.05-3.91-1.86-4.69l-6.65-2.87c-1.81-.78-3.91.05-4.69,1.86Z"/>
              <path class="cls-28" d="M40.65,231.82h0c0-1.71-1.38-3.11-3.1-3.11h-6.57c-1.71-.01-3.11,1.37-3.11,3.09h0c0,1.71,1.38,3.11,3.1,3.11h6.57c1.71.01,3.11-1.37,3.11-3.09Z"/>
              <path class="cls-28" d="M42.71,225.62h0c0-1.71-1.38-3.11-3.1-3.11h-8.62c-1.71-.02-3.11,1.37-3.11,3.09h0c0,1.71,1.38,3.11,3.1,3.11h8.62c1.71.02,3.11-1.37,3.11-3.09Z"/>
              <path class="cls-28" d="M40.99,219.41h0c0-1.71-1.38-3.11-3.1-3.11h-6.89c-1.71-.01-3.11,1.37-3.11,3.09h0c0,1.71,1.38,3.11,3.1,3.11h6.89c1.71.01,3.11-1.37,3.11-3.09Z"/>
              <line class="cls-10" x1="38.61" y1="228.72" x2="29.43" y2="228.74"/>
              <line class="cls-10" x1="38.87" y1="222.57" x2="29.41" y2="222.59"/>
              <line class="cls-10" x1="35.81" y1="216.55" x2="29.4" y2="216.56"/>
            </g>
            <polygon class="cls-28" points="139.1 153.28 120.68 153.28 120.68 165.87 120.68 186.91 139.1 165.87 139.1 153.28"/>
            <path class="cls-28" d="M129.89,159.95h0c-7.64,0-13.83-6.19-13.83-13.83v-7.56c0-7.64,6.19-13.83,13.83-13.83h0c7.64,0,13.83,6.19,13.83,13.83v7.56c0,7.64-6.19,13.83-13.83,13.83Z"/>
            <path class="cls-18" d="M126.64,151.22h0c-3.42,0-6.2-2.77-6.2-6.2h0c0-1.48,1.2-2.69,2.69-2.69h7.01c1.48,0,2.69,1.2,2.69,2.69h0c0,3.42-2.77,6.2-6.2,6.2Z"/>
            <path class="cls-13" d="M136.3,127.53h3.5c2.16,0,3.91,1.75,3.91,3.91v9.24h-3.84c-1.98,0-3.58-1.6-3.58-3.58v-9.57h0Z"/>
            <circle class="cls-28" cx="141.43" cy="140.68" r="3.84"/>
            <path class="cls-11" d="M136.3,127.53h0c-2.5-2.5-6.5-2.68-9.22-.42l-4.87,4.05c-2.14,1.78-5.14,2.09-7.6.78l-3.79-2.02"/>
            <path class="cls-11" d="M136.3,127.53l-1.67-1.69c-1.87-1.89-4.79-2.24-7.05-.84l-2.03,1.26c-3.35,2.07-7.74.2-8.56-3.65h0"/>
          </g>
          <path class="cls-18" d="M216.01,83.32c1.15-6.25-1.52-12.7-6.94-16-2.34-1.42-5.09-2.24-8.02-2.24-3.33,0-6.41,1.05-8.93,2.84-2.25,1.59-5.27,1.59-7.52,0-2.52-1.79-5.61-2.84-8.93-2.84-2.94,0-5.68.82-8.02,2.24-5.43,3.3-8.09,9.75-6.94,16l1.52,8.25c1.67,9.11,5.66,17.63,11.58,24.75l1.99,2.39c1.16,1.4,2.89,2.21,4.7,2.21h0c1.38,0,2.53-1.06,2.64-2.44l1.03-12.58c.18-2.18,2-3.87,4.2-3.87h0c2.19,0,4.02,1.68,4.2,3.87l1.03,12.58c.11,1.38,1.26,2.44,2.64,2.44h0c1.82,0,3.54-.81,4.7-2.21l1.99-2.39c5.92-7.12,9.91-15.64,11.58-24.75l1.52-8.25Z"/>
        </g>
      </g>
    </g>
  </g>
</svg>