<?xml version="1.0" encoding="UTF-8"?>
<svg id="Layer_2" data-name="Layer 2" xmlns="http://www.w3.org/2000/svg" viewBox="0 0 2203.81 888.86">
  <defs>
    <style>
      .cls-1 {
        fill: #ffa80d;
      }

      .cls-2 {
        fill: #fff;
      }

      .cls-3 {
        fill: #0ca3bf;
      }

      .cls-4 {
        fill: #191919;
      }
    </style>
  </defs>
  <g id="Camada_1" data-name="Camada 1">
    <g>
      <circle class="cls-3" cx="444.41" cy="444.42" r="444.41"/>
      <g>
        <g>
          <path class="cls-4" d="M78.87,463.08c.96-1.48,16.8-6.63,20.18-6.55,19.75.45,30.86,77.1,37.67,97.11,21.81,64.05,50.24,127.09,85.93,184.57,14.33,23.07,73.59,113.43,99.62,111.51,56.56-82.51-19.38-296.83,141.03-281.59,120.59,11.46,64.33,205.87,108.65,279.78,17.87,11.16,62.91-48.82,73.1-62.72,60.1-82.02,114.76-204.94,136.97-304.05,24.43-109.03,46.34-322.75-60.98-394.19-107.3-71.43-174.59,45.39-281.52,40.43-103.8-4.82-166.32-122.8-279.12-26.77-66.34,56.48-92.52,138.57-45.92,216.57,91.44,153.09,315.88,222.11,477.34,144.28,18.27-8.81,61.5-43.76,66.69-45.27,23.99-6.98,31.77,11.14,19.7,31.73-38.17,65.11-199.3,89.6-267.76,84.88C184.76,517.23-101.85,255.86,145.9,62.59c99.5-77.62,158.42-20.17,249.79,14.54,47.86,18.19,57.81,18.42,105.73-.08,86.76-33.51,152.77-90.26,247.22-17.68,152.51,117.18,85.18,437.05,18.56,589.24-26.71,61.02-92.6,180.82-145.16,219.41-130.67,95.95-101.3-167.39-122.06-224.82-16.49-45.63-80.32-49.79-98.77-7.77-21.71,49.44-5.16,225.78-52.65,247.2-76.43,34.48-167.49-132.34-195.02-187-16.25-32.27-89.68-209.23-74.64-232.53l-.03-.02Z"/>
          <path class="cls-4" d="M673.05,477.81c-3.78-2.91-3.18-29.06-11.9-37.13-11.81-10.93-42.46,5.12-44.7-24.35-2.51-32.93,76.18-20.96,83.46,34.21,3.05,23.16-10.89,39.58-26.85,27.27h-.01Z"/>
        </g>
        <circle class="cls-4" cx="533.9" cy="338.29" r="45.93"/>
        <circle class="cls-2" cx="549.62" cy="322.56" r="15.72"/>
        <circle class="cls-4" cx="341.03" cy="338.29" r="45.93"/>
        <circle class="cls-2" cx="356.76" cy="322.56" r="15.72"/>
        <g>
          <path class="cls-2" d="M784.05,15.62l21.83,45.53c5.62,11.71,15.06,21.16,26.78,26.78l45.53,21.83-45.53,21.83c-11.71,5.62-21.16,15.06-26.78,26.78l-21.83,45.53-21.83-45.53c-5.62-11.71-15.06-21.16-26.78-26.78l-45.53-21.83,45.53-21.83c11.71-5.62,21.16-15.06,26.78-26.78l21.83-45.53h0Z"/>
          <path class="cls-1" d="M784.04,219.49h0c-6,0-11.47-3.44-14.06-8.86l-21.83-45.53c-4.07-8.48-10.97-15.39-19.46-19.45l-45.54-21.83c-5.41-2.6-8.85-8.07-8.85-14.07s3.44-11.47,8.85-14.07l45.54-21.83c8.49-4.07,15.39-10.98,19.44-19.45l21.85-45.54c2.59-5.42,8.06-8.86,14.06-8.86s11.47,3.44,14.06,8.85l21.85,45.54c4.07,8.48,10.97,15.39,19.46,19.46l45.54,21.82c5.41,2.6,8.85,8.07,8.85,14.07s-3.44,11.47-8.85,14.07l-45.54,21.83c-8.49,4.06-15.39,10.97-19.44,19.44l-21.86,45.55c-2.59,5.41-8.06,8.85-14.06,8.85h-.01ZM725.99,109.76l16.19,7.76c14.87,7.13,26.98,19.24,34.1,34.11l7.75,16.19,7.79-16.21c7.1-14.85,19.21-26.97,34.08-34.1l16.19-7.76-16.19-7.76c-14.87-7.14-26.98-19.25-34.1-34.1l-7.77-16.2-7.77,16.2c-7.1,14.85-19.21,26.97-34.08,34.1l-16.19,7.77h0Z"/>
        </g>
      </g>
    </g>
    <g>
      <g>
        <path class="cls-3" d="M1066.41,505.23c-8.75-9.55-13.11-23.67-13.11-42.38V175.68c0-18.69,4.36-32.82,13.11-42.38,8.74-9.55,21.04-14.33,36.89-14.33h11.58c13.81,0,24.18,2.04,31.1,6.1,6.91,4.07,14.83,11.58,23.78,22.56l140.23,183.52v-155.48c0-18.69,4.47-32.82,13.41-42.38,8.94-9.55,22.15-14.33,39.63-14.33h10.97c16.66,0,29.36,4.78,38.11,14.33,8.74,9.56,13.11,23.68,13.11,42.38v287.17c0,18.7-4.37,32.83-13.11,42.38-8.75,9.55-21.04,14.33-36.89,14.33h-9.76c-13.82,0-24.08-1.83-30.79-5.49s-14.33-10.77-22.86-21.34l-143.28-185.96v156.09c0,18.7-4.48,32.83-13.41,42.38-8.95,9.55-22.16,14.33-39.63,14.33h-10.97c-16.67,0-29.37-4.77-38.11-14.33h0Z"/>
        <path class="cls-3" d="M1599.6,505.23c-8.95-9.55-13.41-23.67-13.41-42.38v-101.21l-135.97-195.11c-1.62-2.84.3-8.13,5.79-15.85s14.53-14.73,27.13-21.04c12.59-6.3,28.25-9.45,46.95-9.45,22.76,0,41.86,14.23,57.31,42.68l59.75,103.04,62.19-103.04c16.66-28.86,36.17-43.29,58.53-43.29,16.66,0,30.89,3.26,42.68,9.76,11.78,6.51,20.62,13.72,26.52,21.64,5.89,7.93,8.02,13.11,6.4,15.55l-134.75,195.11v101.21c0,18.7-4.57,32.83-13.72,42.38s-22.46,14.33-39.94,14.33h-17.07c-16.67,0-29.48-4.77-38.41-14.33h.02Z"/>
        <path class="cls-3" d="M1867.56,213.18c17.27-31.1,41.56-55.48,72.86-73.17,31.29-17.68,67.07-26.52,107.31-26.52,50.4,0,90.24,11.38,119.5,34.14,11.79,9.36,20.52,19.51,26.22,30.49,5.69,10.97,8.54,21.75,8.54,32.31,0,15.45-5.18,27.85-15.55,37.19-10.37,9.35-21.95,15.96-34.75,19.82-12.8,3.87-19.62,4.78-20.43,2.74-7.32-14.22-17.59-25.2-30.79-32.92-13.21-7.72-28.56-11.58-46.03-11.58-25.61,0-46.55,8.54-62.8,25.61-16.26,17.07-24.39,39.63-24.39,67.68s8.23,50.71,24.69,67.98c16.46,17.28,37.29,25.91,62.5,25.91,18.69,0,34.65-4.06,47.86-12.19,13.2-8.13,23.26-19.71,30.18-34.75.81-2.03,7.62-1.11,20.42,2.74,12.8,3.87,24.48,10.47,35.06,19.82,10.57,9.36,15.85,21.75,15.85,37.19,0,10.17-2.95,20.94-8.84,32.31-5.9,11.38-14.74,21.95-26.52,31.71-30.09,23.58-70.53,35.36-121.33,35.36-40.24,0-75.91-8.74-107-26.22-31.1-17.47-55.28-41.76-72.56-72.86-17.28-31.1-25.91-66.55-25.91-106.4s8.63-75.3,25.91-106.39h0Z"/>
      </g>
      <g>
        <path class="cls-4" d="M1059.41,731.05c0-4.83,1.27-9.42,3.82-13.75,2.54-4.33,5.35-7.7,8.4-10.12,3.06-2.42,4.83-3.37,5.35-2.86,6.87,6.37,15.78,11.65,26.73,15.85,10.94,4.2,22.4,6.3,34.37,6.3,7.38,0,13.04-1.01,16.99-3.06,3.94-2.03,5.92-4.96,5.92-8.78,0-4.07-2.17-7.07-6.49-8.97-4.33-1.91-12.22-4.13-23.68-6.68-12.48-2.54-23.17-5.47-32.08-8.78-8.91-3.3-16.93-9.03-24.06-17.18-7.13-8.14-10.69-19.22-10.69-33.22,0-19.34,7.38-34.62,22.15-45.82,14.76-11.2,35.26-16.8,61.48-16.8,20.11,0,36.47,2.17,49.07,6.49,12.6,4.33,21.32,10.69,26.16,19.09,3.31,5.1,4.96,10.95,4.96,17.57,0,5.1-1.4,9.87-4.2,14.32-2.8,4.46-5.92,8.09-9.35,10.88-3.44,2.8-5.41,3.95-5.92,3.44-7.13-6.87-15.79-12.6-25.97-17.18-10.18-4.58-19.99-6.87-29.4-6.87-7.13,0-12.6,1.09-16.42,3.25-3.82,2.16-5.73,5.29-5.73,9.35,0,3.57,1.91,6.18,5.73,7.83,3.82,1.66,10.18,3.38,19.09,5.15l7.64,1.91c12.98,2.8,23.99,5.86,33.03,9.16,9.03,3.31,17.31,8.97,24.82,16.99,7.51,8.02,11.26,18.9,11.26,32.65,0,20.11-7.58,35.64-22.72,46.59-15.15,10.95-37.11,16.42-65.87,16.42s-51.17-4.2-65.68-12.6c-12.48-6.87-18.71-17.05-18.71-30.55v-.02Z"/>
        <path class="cls-4" d="M1556.01,596.64c10.31,13.24,15.46,30.68,15.46,52.31v87.45c0,23.68-10.82,35.51-32.46,35.51h-7.64c-10.44,0-18.59-2.73-24.44-8.21-5.86-5.47-8.78-14.57-8.78-27.3v-74.08c0-17.31-7.51-25.97-22.53-25.97-9.93,0-18.2,4.58-24.82,13.75v86.3c0,23.68-10.82,35.51-32.46,35.51h-7.26c-10.69,0-18.97-2.73-24.82-8.21-5.86-5.47-8.78-14.57-8.78-27.3v-73.7c0-17.56-7.39-26.35-22.15-26.35-5.1,0-9.8,1.28-14.13,3.82-4.33,2.55-7.89,5.86-10.69,9.93v86.3c0,23.68-10.82,35.51-32.46,35.51h-7.64c-10.44,0-18.58-2.73-24.44-8.21-5.86-5.47-8.78-14.57-8.78-27.3v-149.31c0-1.53,2.92-3.3,8.78-5.34,5.85-2.04,12.22-3.06,19.09-3.06,9.67,0,18.33,2.48,25.97,7.45,7.64,4.96,12.98,13.43,16.04,25.39,7.12-10.94,15.33-19.48,24.63-25.58,9.29-6.11,20.81-9.16,34.56-9.16,29.78,0,49.38,12.48,58.81,37.42,7.38-11.96,15.85-21.19,25.39-27.68,9.55-6.49,21.57-9.74,36.08-9.74,22.65,0,39.14,6.62,49.45,19.86h.02Z"/>
        <path class="cls-4" d="M1602.78,613.82c0-12.22,2.92-21.13,8.78-26.73,5.85-5.6,13.87-8.4,24.06-8.4h7.64c10.69,0,18.84,2.67,24.44,8.02,5.6,5.35,8.4,14.39,8.4,27.11v122.58c0,23.68-10.69,35.51-32.08,35.51h-7.64c-10.69,0-18.97-2.73-24.82-8.21-5.86-5.47-8.78-14.57-8.78-27.3v-122.58h0Z"/>
        <path class="cls-4" d="M1720.39,763.7c-5.86-5.47-8.78-14.57-8.78-27.3v-226.82c0-1.53,2.92-3.31,8.78-5.35,5.85-2.03,12.22-3.06,19.09-3.06,12.73,0,23.48,4.2,32.27,12.6,8.78,8.4,13.17,22.79,13.17,43.15v179.47c0,23.68-10.82,35.51-32.46,35.51h-7.64c-10.44,0-18.59-2.73-24.44-8.21h0Z"/>
        <path class="cls-4" d="M1823.87,625.85c8.65-15.4,20.62-27.43,35.89-36.08,15.27-8.65,32.46-12.98,51.55-12.98s35.7,4.08,50.6,12.22c14.89,8.15,26.47,19.35,34.75,33.6,8.27,14.26,12.41,30.42,12.41,48.5v3.44c-.26,5.86-1.47,10.25-3.63,13.17-2.17,2.93-5.92,4.39-11.27,4.39h-120.67c.51,2.55,1.01,4.33,1.53,5.35,2.54,8.91,7.7,15.85,15.47,20.81,7.76,4.96,17.12,7.45,28.07,7.45s20.3-2.1,28.07-6.3c7.76-4.2,13.42-9.74,16.99-16.61.25-.76,3.56-.44,9.93.95,6.36,1.4,12.09,4.2,17.18,8.4,5.09,4.2,7.64,10.5,7.64,18.9,0,6.37-1.85,12.22-5.54,17.56-3.69,5.35-8.97,10.06-15.85,14.13-14.77,8.4-35.13,12.6-61.1,12.6-32.33,0-57.92-8.65-76.75-25.97-18.84-17.31-28.26-41.24-28.26-71.79,0-19.09,4.33-36.34,12.98-51.74h.01ZM1934.22,632.72c-5.86-5.98-13.88-8.97-24.06-8.97s-17.82,3.25-24.44,9.74c-6.62,6.49-10.44,14.7-11.46,24.63h69.5c-.51-10.94-3.69-19.41-9.55-25.39h.01Z"/>
        <path class="cls-4" d="M2022.81,731.05c0-4.83,1.27-9.42,3.82-13.75,2.54-4.33,5.35-7.7,8.4-10.12,3.06-2.42,4.83-3.37,5.35-2.86,6.87,6.37,15.78,11.65,26.73,15.85,10.94,4.2,22.4,6.3,34.37,6.3,7.38,0,13.04-1.01,16.99-3.06,3.94-2.03,5.92-4.96,5.92-8.78,0-4.07-2.17-7.07-6.49-8.97-4.33-1.91-12.22-4.13-23.68-6.68-12.48-2.54-23.17-5.47-32.08-8.78-8.91-3.3-16.93-9.03-24.06-17.18-7.13-8.14-10.69-19.22-10.69-33.22,0-19.34,7.38-34.62,22.15-45.82,14.76-11.2,35.26-16.8,61.48-16.8,20.11,0,36.47,2.17,49.07,6.49,12.6,4.33,21.32,10.69,26.16,19.09,3.31,5.1,4.96,10.95,4.96,17.57,0,5.1-1.4,9.87-4.2,14.32-2.8,4.46-5.92,8.09-9.35,10.88-3.44,2.8-5.41,3.95-5.92,3.44-7.13-6.87-15.79-12.6-25.97-17.18s-19.99-6.87-29.4-6.87c-7.13,0-12.6,1.09-16.42,3.25-3.82,2.16-5.73,5.29-5.73,9.35,0,3.57,1.91,6.18,5.73,7.83,3.82,1.66,10.18,3.38,19.09,5.15l7.64,1.91c12.98,2.8,23.99,5.86,33.03,9.16,9.03,3.31,17.31,8.97,24.82,16.99s11.26,18.9,11.26,32.65c0,20.11-7.58,35.64-22.72,46.59-15.15,10.95-37.11,16.42-65.87,16.42s-51.17-4.2-65.68-12.6c-12.48-6.87-18.71-17.05-18.71-30.55v-.02Z"/>
      </g>
      <path class="cls-1" d="M1639.84,467.37l10.36,21.61c2.67,5.56,7.15,10.04,12.71,12.71l21.61,10.36-21.61,10.36c-5.56,2.67-10.04,7.15-12.71,12.71l-10.36,21.61-10.36-21.61c-2.67-5.56-7.15-10.04-12.71-12.71l-21.61-10.36,21.61-10.36c5.56-2.67,10.04-7.15,12.71-12.71l10.36-21.61Z"/>
      <path class="cls-1" d="M1639.84,564.14h0c-2.85,0-5.45-1.63-6.67-4.2l-10.36-21.61c-1.93-4.02-5.21-7.3-9.23-9.23l-21.61-10.36c-2.57-1.23-4.2-3.83-4.2-6.68s1.63-5.45,4.2-6.68l21.61-10.36c4.03-1.93,7.3-5.21,9.23-9.23l10.37-21.61c1.23-2.57,3.83-4.2,6.67-4.2s5.45,1.63,6.67,4.2l10.37,21.61c1.93,4.02,5.21,7.3,9.23,9.24l21.61,10.36c2.57,1.23,4.2,3.83,4.2,6.68s-1.63,5.45-4.2,6.68l-21.61,10.36c-4.03,1.93-7.3,5.21-9.23,9.23l-10.38,21.62c-1.23,2.57-3.83,4.2-6.67,4.2v-.02Z"/>
      <path class="cls-1" d="M1612.28,512.05l7.69,3.68c7.06,3.38,12.81,9.13,16.18,16.19l3.68,7.69,3.7-7.69c3.37-7.05,9.12-12.8,16.18-16.18l7.69-3.68-7.69-3.68c-7.06-3.39-12.81-9.14-16.18-16.19l-3.69-7.69-3.69,7.69c-3.37,7.05-9.12,12.8-16.18,16.18l-7.69,3.69h0Z"/>
    </g>
  </g>
</svg>